<svg width="100%" height="100%" viewBox="0 0 1000 1000" xmlns="http://www.w3.org/2000/svg">
  <defs>
    <g id="wave-line">
      <path d="M0,500 
               C100,400 200,600 300,500 
               C400,400 500,600 600,500 
               C700,400 800,600 900,500 
               C1000,400 1000,500 1000,500"
            stroke="black" stroke-width="1" fill="none" />
    </g>
    <g id="line">
    <path d="M0,300 
             C100,200 200,400 300,300 
             C400,200 500,400 600,300 
             C700,200 800,400 900,300 
             C1000,200 1000,300 1000,300"
          stroke="black" stroke-width="1" fill="none" opacity="0.1"/>
    
    <path d="M0,400 
             C100,300 200,500 300,400 
             C400,300 500,500 600,400 
             C700,300 800,500 900,400 
             C1000,300 1000,400 1000,400"
          stroke="black" stroke-width="1" fill="none" opacity="0.1"/>
    
    <path d="M0,600 
             C100,500 200,700 300,600 
             C400,500 500,700 600,600 
             C700,500 800,700 900,600 
             C1000,500 1000,600 1000,600"
          stroke="black" stroke-width="1" fill="none" opacity="0.1"/>
  </g>
  </defs>
  <g>
    <use href="#wave-line" x="0" y="-100" opacity="0.2"/>
    <use href="#wave-line" x="0" y="-80" opacity="0.2"/>
    <use href="#wave-line" x="0" y="-60" opacity="0.2"/>
    <use href="#wave-line" x="0" y="-40" opacity="0.2"/>
    <use href="#wave-line" x="0" y="-20" opacity="0.2"/>
    <use href="#wave-line" x="0" y="0" opacity="0.2"/>
    <use href="#wave-line" x="0" y="20" opacity="0.2"/>
    <use href="#wave-line" x="0" y="40" opacity="0.2"/>
    <use href="#wave-line" x="0" y="60" opacity="0.2"/>
    <use href="#wave-line" x="0" y="80" opacity="0.2"/>
    <use href="#wave-line" x="0" y="100" opacity="0.2"/>
  </g>
  <g>
    <use href="#line" x="0" y="-90" opacity="0.2"/>
    <use href="#line" x="0" y="-70" opacity="0.25"/>
    <use href="#line" x="0" y="-50" opacity="0.3"/>
    <use href="#line" x="0" y="-30" opacity="0.35"/>
    <use href="#line" x="0" y="-10" opacity="0.4"/>
    <use href="#line" x="0" y="0" opacity="0.45"/>
    <use href="#line" x="0" y="10" opacity="0.4"/>
    <use href="#line" x="0" y="30" opacity="0.35"/>
    <use href="#line" x="0" y="50" opacity="0.3"/>
    <use href="#line" x="0" y="70" opacity="0.25"/>
    <use href="#line" x="0" y="90" opacity="0.2"/>
  </g>
</svg>