<svg width="4000" height="3000" viewBox="0 0 4000 3000" fill="none" xmlns="http://www.w3.org/2000/svg">
<g clip-path="url(#clip0_1_44)">
<g filter="url(#filter0_d_1_44)">
<path d="M84 738.73C102.87 720.565 121.767 702.432 140.693 684.329C311.022 521.406 483.614 360.988 658.467 203.075C833.321 45.1612 1010.44 -110.247 1189.81 -263.151C1209.74 -280.141 1229.7 -297.099 1249.69 -314.027C1230.82 -295.862 1211.92 -277.729 1193 -259.626C1022.67 -96.7033 850.077 63.7148 675.223 221.628C500.37 379.542 323.254 534.95 143.876 687.854C123.946 704.844 103.987 721.802 84 738.73Z" fill="url(#paint0_linear_1_44)" fill-opacity="0.49"/>
</g>
<g filter="url(#filter1_d_1_44)">
<path d="M3284 3300.73C3302.87 3282.57 3321.77 3264.43 3340.69 3246.33C3511.02 3083.41 3683.61 2922.99 3858.47 2765.07C4033.32 2607.16 4210.44 2451.75 4389.81 2298.85C4409.74 2281.86 4429.7 2264.9 4449.69 2247.97C4430.82 2266.14 4411.92 2284.27 4393 2302.37C4222.67 2465.3 4050.08 2625.71 3875.22 2783.63C3700.37 2941.54 3523.25 3096.95 3343.88 3249.85C3323.95 3266.84 3303.99 3283.8 3284 3300.73Z" fill="url(#paint1_linear_1_44)" fill-opacity="0.36"/>
</g>
<g filter="url(#filter2_d_1_44)">
<path d="M3363 2350.73C3381.87 2332.57 3400.77 2314.43 3419.69 2296.33C3590.02 2133.41 3762.61 1972.99 3937.47 1815.07C4112.32 1657.16 4289.44 1501.75 4468.81 1348.85C4488.74 1331.86 4508.7 1314.9 4528.69 1297.97C4509.82 1316.14 4490.92 1334.27 4472 1352.37C4301.67 1515.3 4129.08 1675.71 3954.22 1833.63C3779.37 1991.54 3602.25 2146.95 3422.88 2299.85C3402.95 2316.84 3382.99 2333.8 3363 2350.73Z" fill="url(#paint2_linear_1_44)" fill-opacity="0.5"/>
</g>
<g filter="url(#filter3_d_1_44)">
<path d="M2138 3489.73C2156.87 3471.57 2175.77 3453.43 2194.69 3435.33C2365.02 3272.41 2537.61 3111.99 2712.47 2954.07C2887.32 2796.16 3064.44 2640.75 3243.81 2487.85C3263.74 2470.86 3283.7 2453.9 3303.69 2436.97C3284.82 2455.14 3265.92 2473.27 3247 2491.37C3076.67 2654.3 2904.08 2814.71 2729.22 2972.63C2554.37 3130.54 2377.25 3285.95 2197.88 3438.85C2177.95 3455.84 2157.99 3472.8 2138 3489.73Z" fill="url(#paint3_linear_1_44)" fill-opacity="0.36"/>
</g>
<g filter="url(#filter4_d_1_44)">
<path d="M2289 2610.73C2307.87 2592.57 2326.77 2574.43 2345.69 2556.33C2516.02 2393.41 2688.61 2232.99 2863.47 2075.07C3038.32 1917.16 3215.44 1761.75 3394.81 1608.85C3414.74 1591.86 3434.7 1574.9 3454.69 1557.97C3435.82 1576.14 3416.92 1594.27 3398 1612.37C3227.67 1775.3 3055.08 1935.71 2880.22 2093.63C2705.37 2251.54 2528.25 2406.95 2348.88 2559.85C2328.95 2576.84 2308.99 2593.8 2289 2610.73Z" fill="url(#paint4_linear_1_44)" fill-opacity="0.36"/>
</g>
<g filter="url(#filter5_d_1_44)">
<path d="M1364 2865.73C1382.87 2847.57 1401.77 2829.43 1420.69 2811.33C1591.02 2648.41 1763.61 2487.99 1938.47 2330.07C2113.32 2172.16 2290.44 2016.75 2469.81 1863.85C2489.74 1846.86 2509.7 1829.9 2529.69 1812.97C2510.82 1831.14 2491.92 1849.27 2473 1867.37C2302.67 2030.3 2130.08 2190.71 1955.22 2348.63C1780.37 2506.54 1603.25 2661.95 1423.88 2814.85C1403.95 2831.84 1383.99 2848.8 1364 2865.73Z" fill="url(#paint5_linear_1_44)" fill-opacity="0.84"/>
</g>
<g filter="url(#filter6_d_1_44)">
<path d="M3103 1366.73C3121.87 1348.57 3140.77 1330.43 3159.69 1312.33C3330.02 1149.41 3502.61 988.988 3677.47 831.075C3852.32 673.161 4029.44 517.753 4208.81 364.848C4228.74 347.859 4248.7 330.901 4268.69 313.973C4249.82 332.138 4230.92 350.271 4212 368.374C4041.67 531.297 3869.08 691.715 3694.22 849.628C3519.37 1007.54 3342.25 1162.95 3162.88 1315.85C3142.95 1332.84 3122.99 1349.8 3103 1366.73Z" fill="url(#paint6_linear_1_44)" fill-opacity="0.63"/>
</g>
<g filter="url(#filter7_d_1_44)">
<path d="M74 3414.73C92.8697 3396.57 111.767 3378.43 130.693 3360.33C301.022 3197.41 473.614 3036.99 648.467 2879.07C823.321 2721.16 1000.44 2565.75 1179.81 2412.85C1199.74 2395.86 1219.7 2378.9 1239.69 2361.97C1220.82 2380.14 1201.92 2398.27 1183 2416.37C1012.67 2579.3 840.077 2739.71 665.223 2897.63C490.37 3055.54 313.254 3210.95 133.876 3363.85C113.946 3380.84 93.9867 3397.8 74 3414.73Z" fill="url(#paint7_linear_1_44)" fill-opacity="0.36"/>
</g>
<g filter="url(#filter8_d_1_44)">
<path d="M1706.5 2047C1725.37 2028.84 1744.27 2010.7 1763.19 1992.6C1933.52 1829.68 2106.11 1669.26 2280.97 1511.35C2455.82 1353.43 2632.94 1198.02 2812.31 1045.12C2832.24 1028.13 2852.2 1011.17 2872.19 994.244C2853.32 1012.41 2834.42 1030.54 2815.5 1048.64C2645.17 1211.57 2472.58 1371.99 2297.72 1529.9C2122.87 1687.81 1945.75 1843.22 1766.38 1996.12C1746.45 2013.11 1726.49 2030.07 1706.5 2047Z" fill="url(#paint8_linear_1_44)" fill-opacity="0.36"/>
</g>
<g filter="url(#filter9_d_1_44)">
<path d="M3445 314.73C3463.87 296.565 3482.77 278.432 3501.69 260.329C3672.02 97.4064 3844.61 -63.0119 4019.47 -220.925C4194.32 -378.839 4371.44 -534.247 4550.81 -687.151C4570.74 -704.141 4590.7 -721.099 4610.69 -738.027C4591.82 -719.862 4572.92 -701.729 4554 -683.626C4383.67 -520.703 4211.08 -360.285 4036.22 -202.372C3861.37 -44.4583 3684.25 110.95 3504.88 263.854C3484.95 280.844 3464.99 297.802 3445 314.73Z" fill="url(#paint9_linear_1_44)" fill-opacity="0.36"/>
</g>
<g filter="url(#filter10_d_1_44)">
<path d="M1947 1167.73C1965.87 1149.57 1984.77 1131.43 2003.69 1113.33C2174.02 950.406 2346.61 789.988 2521.47 632.075C2696.32 474.161 2873.44 318.753 3052.81 165.848C3072.74 148.859 3092.7 131.901 3112.69 114.973C3093.82 133.138 3074.92 151.271 3056 169.374C2885.67 332.297 2713.08 492.715 2538.22 650.628C2363.37 808.542 2186.25 963.95 2006.88 1116.85C1986.95 1133.84 1966.99 1150.8 1947 1167.73Z" fill="url(#paint10_linear_1_44)" fill-opacity="0.36"/>
</g>
<g filter="url(#filter11_d_1_44)">
<path d="M657 2339.73C675.87 2321.57 694.767 2303.43 713.693 2285.33C884.022 2122.41 1056.61 1961.99 1231.47 1804.07C1406.32 1646.16 1583.44 1490.75 1762.81 1337.85C1782.74 1320.86 1802.7 1303.9 1822.69 1286.97C1803.82 1305.14 1784.92 1323.27 1766 1341.37C1595.67 1504.3 1423.08 1664.71 1248.22 1822.63C1073.37 1980.54 896.254 2135.95 716.876 2288.85C696.946 2305.84 676.987 2322.8 657 2339.73Z" fill="url(#paint11_linear_1_44)" fill-opacity="0.36"/>
</g>
<g filter="url(#filter12_d_1_44)">
<path d="M-872 840.73C-853.13 822.565 -834.233 804.432 -815.307 786.329C-644.978 623.406 -472.386 462.988 -297.533 305.075C-122.679 147.161 54.4359 -8.24748 233.814 -161.152C253.744 -178.141 273.703 -195.099 293.69 -212.027C274.82 -193.862 255.923 -175.729 236.997 -157.626C66.6679 5.29656 -105.923 165.715 -280.777 323.628C-455.63 481.542 -632.746 636.95 -812.124 789.854C-832.054 806.844 -852.013 823.802 -872 840.73Z" fill="url(#paint12_linear_1_44)" fill-opacity="0.36"/>
</g>
<g filter="url(#filter13_d_1_44)">
<path d="M2128 314.73C2146.87 296.565 2165.77 278.432 2184.69 260.329C2355.02 97.4064 2527.61 -63.0119 2702.47 -220.925C2877.32 -378.839 3054.44 -534.247 3233.81 -687.151C3253.74 -704.141 3273.7 -721.099 3293.69 -738.027C3274.82 -719.862 3255.92 -701.729 3237 -683.626C3066.67 -520.703 2894.08 -360.285 2719.22 -202.372C2544.37 -44.4583 2367.25 110.95 2187.88 263.854C2167.95 280.844 2147.99 297.802 2128 314.73Z" fill="url(#paint13_linear_1_44)" fill-opacity="0.36"/>
</g>
<g filter="url(#filter14_d_1_44)">
<path d="M-194 2562.73C-175.13 2544.57 -156.233 2526.43 -137.307 2508.33C33.022 2345.41 205.614 2184.99 380.467 2027.07C555.321 1869.16 732.436 1713.75 911.814 1560.85C931.744 1543.86 951.703 1526.9 971.69 1509.97C952.82 1528.14 933.923 1546.27 914.997 1564.37C744.668 1727.3 572.077 1887.71 397.223 2045.63C222.37 2203.54 45.2539 2358.95 -134.124 2511.85C-154.054 2528.84 -174.013 2545.8 -194 2562.73Z" fill="url(#paint14_linear_1_44)" fill-opacity="0.43"/>
</g>
<g filter="url(#filter15_d_1_44)">
<path d="M781 1442.73C799.87 1424.57 818.767 1406.43 837.693 1388.33C1008.02 1225.41 1180.61 1064.99 1355.47 907.075C1530.32 749.161 1707.44 593.753 1886.81 440.848C1906.74 423.859 1926.7 406.901 1946.69 389.973C1927.82 408.138 1908.92 426.271 1890 444.374C1719.67 607.297 1547.08 767.715 1372.22 925.628C1372.22 925.628 1372.22 925.628 1372.22 925.628C1197.37 1083.54 1020.25 1238.95 840.876 1391.85C820.946 1408.84 800.987 1425.8 781 1442.73Z" fill="url(#paint15_linear_1_44)"/>
</g>
<g filter="url(#filter16_d_1_44)">
<path d="M972 629.73C990.87 611.565 1009.77 593.432 1028.69 575.329C1199.02 412.406 1371.61 251.988 1546.47 94.0747C1721.32 -63.8388 1898.44 -219.247 2077.81 -372.151C2097.74 -389.141 2117.7 -406.099 2137.69 -423.027C2118.82 -404.862 2099.92 -386.729 2081 -368.626C1910.67 -205.703 1738.08 -45.2852 1563.22 112.628C1388.37 270.542 1211.25 425.95 1031.88 578.854C1011.95 595.844 991.987 612.802 972 629.73Z" fill="url(#paint16_linear_1_44)" fill-opacity="0.36"/>
</g>
<g filter="url(#filter17_d_1_44)">
<path d="M-299 1619.73C-280.13 1601.57 -261.233 1583.43 -242.307 1565.33C-71.978 1402.41 100.614 1241.99 275.467 1084.07C450.321 926.161 627.436 770.753 806.814 617.848C826.744 600.859 846.703 583.901 866.69 566.973C847.82 585.138 828.923 603.271 809.997 621.374C639.668 784.297 467.077 944.715 292.223 1102.63C117.37 1260.54 -59.7461 1415.95 -239.124 1568.85C-259.054 1585.84 -279.013 1602.8 -299 1619.73Z" fill="url(#paint17_linear_1_44)" fill-opacity="0.36"/>
</g>
</g>
<defs>
<filter id="filter0_d_1_44" x="-16" y="-414.027" width="1365.69" height="1252.76" filterUnits="userSpaceOnUse" color-interpolation-filters="sRGB">
<feFlood flood-opacity="0" result="BackgroundImageFix"/>
<feColorMatrix in="SourceAlpha" type="matrix" values="0 0 0 0 0 0 0 0 0 0 0 0 0 0 0 0 0 0 127 0" result="hardAlpha"/>
<feOffset/>
<feGaussianBlur stdDeviation="50"/>
<feComposite in2="hardAlpha" operator="out"/>
<feColorMatrix type="matrix" values="0 0 0 0 0.111834 0 0 0 0 0.495266 0 0 0 0 0.830769 0 0 0 1 0"/>
<feBlend mode="color-dodge" in2="BackgroundImageFix" result="effect1_dropShadow_1_44"/>
<feBlend mode="normal" in="SourceGraphic" in2="effect1_dropShadow_1_44" result="shape"/>
</filter>
<filter id="filter1_d_1_44" x="3184" y="2147.97" width="1365.69" height="1252.76" filterUnits="userSpaceOnUse" color-interpolation-filters="sRGB">
<feFlood flood-opacity="0" result="BackgroundImageFix"/>
<feColorMatrix in="SourceAlpha" type="matrix" values="0 0 0 0 0 0 0 0 0 0 0 0 0 0 0 0 0 0 127 0" result="hardAlpha"/>
<feOffset/>
<feGaussianBlur stdDeviation="50"/>
<feComposite in2="hardAlpha" operator="out"/>
<feColorMatrix type="matrix" values="0 0 0 0 0.111834 0 0 0 0 0.495266 0 0 0 0 0.830769 0 0 0 1 0"/>
<feBlend mode="color-dodge" in2="BackgroundImageFix" result="effect1_dropShadow_1_44"/>
<feBlend mode="normal" in="SourceGraphic" in2="effect1_dropShadow_1_44" result="shape"/>
</filter>
<filter id="filter2_d_1_44" x="3263" y="1197.97" width="1365.69" height="1252.76" filterUnits="userSpaceOnUse" color-interpolation-filters="sRGB">
<feFlood flood-opacity="0" result="BackgroundImageFix"/>
<feColorMatrix in="SourceAlpha" type="matrix" values="0 0 0 0 0 0 0 0 0 0 0 0 0 0 0 0 0 0 127 0" result="hardAlpha"/>
<feOffset/>
<feGaussianBlur stdDeviation="50"/>
<feComposite in2="hardAlpha" operator="out"/>
<feColorMatrix type="matrix" values="0 0 0 0 0.111834 0 0 0 0 0.495266 0 0 0 0 0.830769 0 0 0 1 0"/>
<feBlend mode="color-dodge" in2="BackgroundImageFix" result="effect1_dropShadow_1_44"/>
<feBlend mode="normal" in="SourceGraphic" in2="effect1_dropShadow_1_44" result="shape"/>
</filter>
<filter id="filter3_d_1_44" x="2038" y="2336.97" width="1365.69" height="1252.76" filterUnits="userSpaceOnUse" color-interpolation-filters="sRGB">
<feFlood flood-opacity="0" result="BackgroundImageFix"/>
<feColorMatrix in="SourceAlpha" type="matrix" values="0 0 0 0 0 0 0 0 0 0 0 0 0 0 0 0 0 0 127 0" result="hardAlpha"/>
<feOffset/>
<feGaussianBlur stdDeviation="50"/>
<feComposite in2="hardAlpha" operator="out"/>
<feColorMatrix type="matrix" values="0 0 0 0 0.111834 0 0 0 0 0.495266 0 0 0 0 0.830769 0 0 0 1 0"/>
<feBlend mode="color-dodge" in2="BackgroundImageFix" result="effect1_dropShadow_1_44"/>
<feBlend mode="normal" in="SourceGraphic" in2="effect1_dropShadow_1_44" result="shape"/>
</filter>
<filter id="filter4_d_1_44" x="2189" y="1457.97" width="1365.69" height="1252.76" filterUnits="userSpaceOnUse" color-interpolation-filters="sRGB">
<feFlood flood-opacity="0" result="BackgroundImageFix"/>
<feColorMatrix in="SourceAlpha" type="matrix" values="0 0 0 0 0 0 0 0 0 0 0 0 0 0 0 0 0 0 127 0" result="hardAlpha"/>
<feOffset/>
<feGaussianBlur stdDeviation="50"/>
<feComposite in2="hardAlpha" operator="out"/>
<feColorMatrix type="matrix" values="0 0 0 0 0.111834 0 0 0 0 0.495266 0 0 0 0 0.830769 0 0 0 1 0"/>
<feBlend mode="color-dodge" in2="BackgroundImageFix" result="effect1_dropShadow_1_44"/>
<feBlend mode="normal" in="SourceGraphic" in2="effect1_dropShadow_1_44" result="shape"/>
</filter>
<filter id="filter5_d_1_44" x="1264" y="1712.97" width="1365.69" height="1252.76" filterUnits="userSpaceOnUse" color-interpolation-filters="sRGB">
<feFlood flood-opacity="0" result="BackgroundImageFix"/>
<feColorMatrix in="SourceAlpha" type="matrix" values="0 0 0 0 0 0 0 0 0 0 0 0 0 0 0 0 0 0 127 0" result="hardAlpha"/>
<feOffset/>
<feGaussianBlur stdDeviation="50"/>
<feComposite in2="hardAlpha" operator="out"/>
<feColorMatrix type="matrix" values="0 0 0 0 0.111834 0 0 0 0 0.495266 0 0 0 0 0.830769 0 0 0 1 0"/>
<feBlend mode="color-dodge" in2="BackgroundImageFix" result="effect1_dropShadow_1_44"/>
<feBlend mode="normal" in="SourceGraphic" in2="effect1_dropShadow_1_44" result="shape"/>
</filter>
<filter id="filter6_d_1_44" x="3003" y="213.973" width="1365.69" height="1252.76" filterUnits="userSpaceOnUse" color-interpolation-filters="sRGB">
<feFlood flood-opacity="0" result="BackgroundImageFix"/>
<feColorMatrix in="SourceAlpha" type="matrix" values="0 0 0 0 0 0 0 0 0 0 0 0 0 0 0 0 0 0 127 0" result="hardAlpha"/>
<feOffset/>
<feGaussianBlur stdDeviation="50"/>
<feComposite in2="hardAlpha" operator="out"/>
<feColorMatrix type="matrix" values="0 0 0 0 0.111834 0 0 0 0 0.495266 0 0 0 0 0.830769 0 0 0 1 0"/>
<feBlend mode="color-dodge" in2="BackgroundImageFix" result="effect1_dropShadow_1_44"/>
<feBlend mode="normal" in="SourceGraphic" in2="effect1_dropShadow_1_44" result="shape"/>
</filter>
<filter id="filter7_d_1_44" x="-26" y="2261.97" width="1365.69" height="1252.76" filterUnits="userSpaceOnUse" color-interpolation-filters="sRGB">
<feFlood flood-opacity="0" result="BackgroundImageFix"/>
<feColorMatrix in="SourceAlpha" type="matrix" values="0 0 0 0 0 0 0 0 0 0 0 0 0 0 0 0 0 0 127 0" result="hardAlpha"/>
<feOffset/>
<feGaussianBlur stdDeviation="50"/>
<feComposite in2="hardAlpha" operator="out"/>
<feColorMatrix type="matrix" values="0 0 0 0 0.111834 0 0 0 0 0.495266 0 0 0 0 0.830769 0 0 0 1 0"/>
<feBlend mode="color-dodge" in2="BackgroundImageFix" result="effect1_dropShadow_1_44"/>
<feBlend mode="normal" in="SourceGraphic" in2="effect1_dropShadow_1_44" result="shape"/>
</filter>
<filter id="filter8_d_1_44" x="1606.5" y="894.244" width="1365.69" height="1252.76" filterUnits="userSpaceOnUse" color-interpolation-filters="sRGB">
<feFlood flood-opacity="0" result="BackgroundImageFix"/>
<feColorMatrix in="SourceAlpha" type="matrix" values="0 0 0 0 0 0 0 0 0 0 0 0 0 0 0 0 0 0 127 0" result="hardAlpha"/>
<feOffset/>
<feGaussianBlur stdDeviation="50"/>
<feComposite in2="hardAlpha" operator="out"/>
<feColorMatrix type="matrix" values="0 0 0 0 0.111834 0 0 0 0 0.495266 0 0 0 0 0.830769 0 0 0 1 0"/>
<feBlend mode="color-dodge" in2="BackgroundImageFix" result="effect1_dropShadow_1_44"/>
<feBlend mode="normal" in="SourceGraphic" in2="effect1_dropShadow_1_44" result="shape"/>
</filter>
<filter id="filter9_d_1_44" x="3345" y="-838.027" width="1365.69" height="1252.76" filterUnits="userSpaceOnUse" color-interpolation-filters="sRGB">
<feFlood flood-opacity="0" result="BackgroundImageFix"/>
<feColorMatrix in="SourceAlpha" type="matrix" values="0 0 0 0 0 0 0 0 0 0 0 0 0 0 0 0 0 0 127 0" result="hardAlpha"/>
<feOffset/>
<feGaussianBlur stdDeviation="50"/>
<feComposite in2="hardAlpha" operator="out"/>
<feColorMatrix type="matrix" values="0 0 0 0 0.111834 0 0 0 0 0.495266 0 0 0 0 0.830769 0 0 0 1 0"/>
<feBlend mode="color-dodge" in2="BackgroundImageFix" result="effect1_dropShadow_1_44"/>
<feBlend mode="normal" in="SourceGraphic" in2="effect1_dropShadow_1_44" result="shape"/>
</filter>
<filter id="filter10_d_1_44" x="1847" y="14.9731" width="1365.69" height="1252.76" filterUnits="userSpaceOnUse" color-interpolation-filters="sRGB">
<feFlood flood-opacity="0" result="BackgroundImageFix"/>
<feColorMatrix in="SourceAlpha" type="matrix" values="0 0 0 0 0 0 0 0 0 0 0 0 0 0 0 0 0 0 127 0" result="hardAlpha"/>
<feOffset/>
<feGaussianBlur stdDeviation="50"/>
<feComposite in2="hardAlpha" operator="out"/>
<feColorMatrix type="matrix" values="0 0 0 0 0.111834 0 0 0 0 0.495266 0 0 0 0 0.830769 0 0 0 1 0"/>
<feBlend mode="color-dodge" in2="BackgroundImageFix" result="effect1_dropShadow_1_44"/>
<feBlend mode="normal" in="SourceGraphic" in2="effect1_dropShadow_1_44" result="shape"/>
</filter>
<filter id="filter11_d_1_44" x="557" y="1186.97" width="1365.69" height="1252.76" filterUnits="userSpaceOnUse" color-interpolation-filters="sRGB">
<feFlood flood-opacity="0" result="BackgroundImageFix"/>
<feColorMatrix in="SourceAlpha" type="matrix" values="0 0 0 0 0 0 0 0 0 0 0 0 0 0 0 0 0 0 127 0" result="hardAlpha"/>
<feOffset/>
<feGaussianBlur stdDeviation="50"/>
<feComposite in2="hardAlpha" operator="out"/>
<feColorMatrix type="matrix" values="0 0 0 0 0.111834 0 0 0 0 0.495266 0 0 0 0 0.830769 0 0 0 1 0"/>
<feBlend mode="color-dodge" in2="BackgroundImageFix" result="effect1_dropShadow_1_44"/>
<feBlend mode="normal" in="SourceGraphic" in2="effect1_dropShadow_1_44" result="shape"/>
</filter>
<filter id="filter12_d_1_44" x="-972" y="-312.027" width="1365.69" height="1252.76" filterUnits="userSpaceOnUse" color-interpolation-filters="sRGB">
<feFlood flood-opacity="0" result="BackgroundImageFix"/>
<feColorMatrix in="SourceAlpha" type="matrix" values="0 0 0 0 0 0 0 0 0 0 0 0 0 0 0 0 0 0 127 0" result="hardAlpha"/>
<feOffset/>
<feGaussianBlur stdDeviation="50"/>
<feComposite in2="hardAlpha" operator="out"/>
<feColorMatrix type="matrix" values="0 0 0 0 0.111834 0 0 0 0 0.495266 0 0 0 0 0.830769 0 0 0 1 0"/>
<feBlend mode="color-dodge" in2="BackgroundImageFix" result="effect1_dropShadow_1_44"/>
<feBlend mode="normal" in="SourceGraphic" in2="effect1_dropShadow_1_44" result="shape"/>
</filter>
<filter id="filter13_d_1_44" x="2028" y="-838.027" width="1365.69" height="1252.76" filterUnits="userSpaceOnUse" color-interpolation-filters="sRGB">
<feFlood flood-opacity="0" result="BackgroundImageFix"/>
<feColorMatrix in="SourceAlpha" type="matrix" values="0 0 0 0 0 0 0 0 0 0 0 0 0 0 0 0 0 0 127 0" result="hardAlpha"/>
<feOffset/>
<feGaussianBlur stdDeviation="50"/>
<feComposite in2="hardAlpha" operator="out"/>
<feColorMatrix type="matrix" values="0 0 0 0 0.111834 0 0 0 0 0.495266 0 0 0 0 0.830769 0 0 0 1 0"/>
<feBlend mode="color-dodge" in2="BackgroundImageFix" result="effect1_dropShadow_1_44"/>
<feBlend mode="normal" in="SourceGraphic" in2="effect1_dropShadow_1_44" result="shape"/>
</filter>
<filter id="filter14_d_1_44" x="-294" y="1409.97" width="1365.69" height="1252.76" filterUnits="userSpaceOnUse" color-interpolation-filters="sRGB">
<feFlood flood-opacity="0" result="BackgroundImageFix"/>
<feColorMatrix in="SourceAlpha" type="matrix" values="0 0 0 0 0 0 0 0 0 0 0 0 0 0 0 0 0 0 127 0" result="hardAlpha"/>
<feOffset/>
<feGaussianBlur stdDeviation="50"/>
<feComposite in2="hardAlpha" operator="out"/>
<feColorMatrix type="matrix" values="0 0 0 0 0.111834 0 0 0 0 0.495266 0 0 0 0 0.830769 0 0 0 1 0"/>
<feBlend mode="color-dodge" in2="BackgroundImageFix" result="effect1_dropShadow_1_44"/>
<feBlend mode="normal" in="SourceGraphic" in2="effect1_dropShadow_1_44" result="shape"/>
</filter>
<filter id="filter15_d_1_44" x="681" y="289.973" width="1365.69" height="1252.76" filterUnits="userSpaceOnUse" color-interpolation-filters="sRGB">
<feFlood flood-opacity="0" result="BackgroundImageFix"/>
<feColorMatrix in="SourceAlpha" type="matrix" values="0 0 0 0 0 0 0 0 0 0 0 0 0 0 0 0 0 0 127 0" result="hardAlpha"/>
<feOffset/>
<feGaussianBlur stdDeviation="50"/>
<feComposite in2="hardAlpha" operator="out"/>
<feColorMatrix type="matrix" values="0 0 0 0 0.111834 0 0 0 0 0.495266 0 0 0 0 0.830769 0 0 0 1 0"/>
<feBlend mode="color-dodge" in2="BackgroundImageFix" result="effect1_dropShadow_1_44"/>
<feBlend mode="normal" in="SourceGraphic" in2="effect1_dropShadow_1_44" result="shape"/>
</filter>
<filter id="filter16_d_1_44" x="872" y="-523.027" width="1365.69" height="1252.76" filterUnits="userSpaceOnUse" color-interpolation-filters="sRGB">
<feFlood flood-opacity="0" result="BackgroundImageFix"/>
<feColorMatrix in="SourceAlpha" type="matrix" values="0 0 0 0 0 0 0 0 0 0 0 0 0 0 0 0 0 0 127 0" result="hardAlpha"/>
<feOffset/>
<feGaussianBlur stdDeviation="50"/>
<feComposite in2="hardAlpha" operator="out"/>
<feColorMatrix type="matrix" values="0 0 0 0 0.111834 0 0 0 0 0.495266 0 0 0 0 0.830769 0 0 0 1 0"/>
<feBlend mode="color-dodge" in2="BackgroundImageFix" result="effect1_dropShadow_1_44"/>
<feBlend mode="normal" in="SourceGraphic" in2="effect1_dropShadow_1_44" result="shape"/>
</filter>
<filter id="filter17_d_1_44" x="-399" y="466.973" width="1365.69" height="1252.76" filterUnits="userSpaceOnUse" color-interpolation-filters="sRGB">
<feFlood flood-opacity="0" result="BackgroundImageFix"/>
<feColorMatrix in="SourceAlpha" type="matrix" values="0 0 0 0 0 0 0 0 0 0 0 0 0 0 0 0 0 0 127 0" result="hardAlpha"/>
<feOffset/>
<feGaussianBlur stdDeviation="50"/>
<feComposite in2="hardAlpha" operator="out"/>
<feColorMatrix type="matrix" values="0 0 0 0 0.111834 0 0 0 0 0.495266 0 0 0 0 0.830769 0 0 0 1 0"/>
<feBlend mode="color-dodge" in2="BackgroundImageFix" result="effect1_dropShadow_1_44"/>
<feBlend mode="normal" in="SourceGraphic" in2="effect1_dropShadow_1_44" result="shape"/>
</filter>
<linearGradient id="paint0_linear_1_44" x1="82.1825" y1="741.504" x2="1308.07" y2="-240.299" gradientUnits="userSpaceOnUse">
<stop stop-color="#1DB6D4" stop-opacity="0"/>
<stop offset="0.5" stop-color="#1DB5D4" stop-opacity="0.866667"/>
<stop offset="1" stop-color="#1D1DB5" stop-opacity="0.831373"/>
</linearGradient>
<linearGradient id="paint1_linear_1_44" x1="3282.18" y1="3303.5" x2="4508.07" y2="2321.7" gradientUnits="userSpaceOnUse">
<stop stop-color="#1DB6D4" stop-opacity="0"/>
<stop offset="0.5" stop-color="#1DB5D4" stop-opacity="0.866667"/>
<stop offset="1" stop-color="#1D1DB5" stop-opacity="0.831373"/>
</linearGradient>
<linearGradient id="paint2_linear_1_44" x1="3361.18" y1="2353.5" x2="4587.07" y2="1371.7" gradientUnits="userSpaceOnUse">
<stop stop-color="#1DB6D4" stop-opacity="0"/>
<stop offset="0.5" stop-color="#1DB5D4" stop-opacity="0.866667"/>
<stop offset="1" stop-color="#1D1DB5" stop-opacity="0.831373"/>
</linearGradient>
<linearGradient id="paint3_linear_1_44" x1="2136.18" y1="3492.5" x2="3362.07" y2="2510.7" gradientUnits="userSpaceOnUse">
<stop stop-color="#1DB6D4" stop-opacity="0"/>
<stop offset="0.5" stop-color="#1DB5D4" stop-opacity="0.866667"/>
<stop offset="1" stop-color="#1D1DB5" stop-opacity="0.831373"/>
</linearGradient>
<linearGradient id="paint4_linear_1_44" x1="2287.18" y1="2613.5" x2="3513.07" y2="1631.7" gradientUnits="userSpaceOnUse">
<stop stop-color="#1DB6D4" stop-opacity="0"/>
<stop offset="0.5" stop-color="#1DB5D4" stop-opacity="0.866667"/>
<stop offset="1" stop-color="#1D1DB5" stop-opacity="0.831373"/>
</linearGradient>
<linearGradient id="paint5_linear_1_44" x1="1362.18" y1="2868.5" x2="2588.07" y2="1886.7" gradientUnits="userSpaceOnUse">
<stop stop-color="#1DB6D4" stop-opacity="0"/>
<stop offset="0.5" stop-color="#1DB5D4" stop-opacity="0.866667"/>
<stop offset="1" stop-color="#1D1DB5" stop-opacity="0.831373"/>
</linearGradient>
<linearGradient id="paint6_linear_1_44" x1="3101.18" y1="1369.5" x2="4327.07" y2="387.701" gradientUnits="userSpaceOnUse">
<stop stop-color="#1DB6D4" stop-opacity="0"/>
<stop offset="0.5" stop-color="#1DB5D4" stop-opacity="0.866667"/>
<stop offset="1" stop-color="#1D1DB5" stop-opacity="0.831373"/>
</linearGradient>
<linearGradient id="paint7_linear_1_44" x1="72.1825" y1="3417.5" x2="1298.07" y2="2435.7" gradientUnits="userSpaceOnUse">
<stop stop-color="#1DB6D4" stop-opacity="0"/>
<stop offset="0.5" stop-color="#1DB5D4" stop-opacity="0.866667"/>
<stop offset="1" stop-color="#1D1DB5" stop-opacity="0.831373"/>
</linearGradient>
<linearGradient id="paint8_linear_1_44" x1="1955.18" y1="1907.5" x2="3181.07" y2="925.701" gradientUnits="userSpaceOnUse">
<stop stop-color="#1DB6D4" stop-opacity="0"/>
<stop offset="0.5" stop-color="#1DB5D4" stop-opacity="0.866667"/>
<stop offset="1" stop-color="#1D1DB5" stop-opacity="0.831373"/>
</linearGradient>
<linearGradient id="paint9_linear_1_44" x1="3443.18" y1="317.504" x2="4669.07" y2="-664.299" gradientUnits="userSpaceOnUse">
<stop stop-color="#1DB6D4" stop-opacity="0"/>
<stop offset="0.5" stop-color="#1DB5D4" stop-opacity="0.866667"/>
<stop offset="1" stop-color="#1D1DB5" stop-opacity="0.831373"/>
</linearGradient>
<linearGradient id="paint10_linear_1_44" x1="1945.18" y1="1170.5" x2="3171.07" y2="188.701" gradientUnits="userSpaceOnUse">
<stop stop-color="#1DB6D4" stop-opacity="0"/>
<stop offset="0.5" stop-color="#1DB5D4" stop-opacity="0.866667"/>
<stop offset="1" stop-color="#1D1DB5" stop-opacity="0.831373"/>
</linearGradient>
<linearGradient id="paint11_linear_1_44" x1="655.183" y1="2342.5" x2="1881.07" y2="1360.7" gradientUnits="userSpaceOnUse">
<stop stop-color="#1DB6D4" stop-opacity="0"/>
<stop offset="0.5" stop-color="#1DB5D4" stop-opacity="0.866667"/>
<stop offset="1" stop-color="#1D1DB5" stop-opacity="0.831373"/>
</linearGradient>
<linearGradient id="paint12_linear_1_44" x1="-873.817" y1="843.504" x2="352.069" y2="-138.299" gradientUnits="userSpaceOnUse">
<stop stop-color="#1DB6D4" stop-opacity="0"/>
<stop offset="0.5" stop-color="#1DB5D4" stop-opacity="0.866667"/>
<stop offset="1" stop-color="#1D1DB5" stop-opacity="0.831373"/>
</linearGradient>
<linearGradient id="paint13_linear_1_44" x1="2126.18" y1="317.504" x2="3352.07" y2="-664.299" gradientUnits="userSpaceOnUse">
<stop stop-color="#1DB6D4" stop-opacity="0"/>
<stop offset="0.5" stop-color="#1DB5D4" stop-opacity="0.866667"/>
<stop offset="1" stop-color="#1D1DB5" stop-opacity="0.831373"/>
</linearGradient>
<linearGradient id="paint14_linear_1_44" x1="-195.817" y1="2565.5" x2="1030.07" y2="1583.7" gradientUnits="userSpaceOnUse">
<stop stop-color="#1DB6D4" stop-opacity="0"/>
<stop offset="0.5" stop-color="#1DB5D4" stop-opacity="0.866667"/>
<stop offset="1" stop-color="#1D1DB5" stop-opacity="0.831373"/>
</linearGradient>
<linearGradient id="paint15_linear_1_44" x1="779.183" y1="1445.5" x2="2005.07" y2="463.701" gradientUnits="userSpaceOnUse">
<stop stop-color="#1DB6D4" stop-opacity="0"/>
<stop offset="0.5" stop-color="#1DB5D4" stop-opacity="0.866667"/>
<stop offset="1" stop-color="#1D1DB5" stop-opacity="0.831373"/>
</linearGradient>
<linearGradient id="paint16_linear_1_44" x1="970.183" y1="632.504" x2="2196.07" y2="-349.299" gradientUnits="userSpaceOnUse">
<stop stop-color="#1DB6D4" stop-opacity="0"/>
<stop offset="0.5" stop-color="#1DB5D4" stop-opacity="0.866667"/>
<stop offset="1" stop-color="#1D1DB5" stop-opacity="0.831373"/>
</linearGradient>
<linearGradient id="paint17_linear_1_44" x1="-300.817" y1="1622.5" x2="925.069" y2="640.701" gradientUnits="userSpaceOnUse">
<stop stop-color="#1DB6D4" stop-opacity="0"/>
<stop offset="0.5" stop-color="#1DB5D4" stop-opacity="0.866667"/>
<stop offset="1" stop-color="#1D1DB5" stop-opacity="0.831373"/>
</linearGradient>
<clipPath id="clip0_1_44">
<rect width="4000" height="3000" fill="white"/>
</clipPath>
</defs>
</svg>
